<?xml version="1.0" encoding="UTF-8"?>
<svg width="85px" height="106px" viewBox="0 0 85 106" version="1.1" xmlns="http://www.w3.org/2000/svg" xmlns:xlink="http://www.w3.org/1999/xlink">
    <!-- Generator: Sketch 51.1 (57501) - http://www.bohemiancoding.com/sketch -->
    <title>Group 2</title>
    <desc>Created with Sketch.</desc>
    <defs></defs>
    <g id="Data-Sources" stroke="none" stroke-width="1" fill="none" fill-rule="evenodd">
        <g id="Record-List" transform="translate(-555.000000, -242.000000)">
            <g id="Group-6" transform="translate(555.000000, 242.000000)">
                <g id="Group-2">
                    <path d="M74.5205479,54.7260274 L74.5205479,72.0574289 C74.5205479,90.137932 59.9241096,104.794521 41.9178082,104.794521 C23.9115068,104.794521 9.31506849,90.137932 9.31506849,72.0574289 L9.31506849,54.7260274 L74.5205479,54.7260274" id="Fill-141" fill="#D6D6D6"></path>
                    <polygon id="Fill-142" fill="#EEEEEE" points="2.32876712 53.5616438 82.6712329 53.5616438 82.6712329 43.0821918 2.32876712 43.0821918"></polygon>
                    <path d="M27.9452055,41.9178082 L27.9452055,7.98434442 C27.9452055,4.86058056 25.5978082,2.32876712 22.7054795,2.32876712 C19.8131507,2.32876712 17.4657534,4.86058056 17.4657534,7.98434442 L17.4657534,41.9178082 L27.9452055,41.9178082" id="Fill-143" fill="#FFFFFE"></path>
                    <path d="M66.369863,41.9178082 L66.369863,7.98434442 C66.369863,4.86058056 64.0224658,2.32876712 61.130137,2.32876712 C58.2378082,2.32876712 55.890411,4.86058056 55.890411,7.98434442 L55.890411,41.9178082 L66.369863,41.9178082" id="Fill-144" fill="#FFFFFE"></path>
                    <path d="M3.86363636,50.9417808 L81.1363636,50.9417808 L81.1363636,43.3732877 L3.86363636,43.3732877 L3.86363636,50.9417808 Z M0,54.7260274 L85,54.7260274 L85,39.5890411 L0,39.5890411 L0,54.7260274 Z" id="Fill-145" fill="#B0B0B0"></path>
                    <path d="M43.0821918,105.958904 C23.821347,105.958904 8.15068493,90.6364789 8.15068493,71.803653 L8.15068493,54.7260274 L12.0319635,54.7260274 L12.0319635,71.803653 C12.0319635,88.5435211 25.9618721,102.163876 43.0821918,102.163876 C60.2025114,102.163876 74.1324201,88.5435211 74.1324201,71.803653 L74.1324201,54.7260274 L78.0136986,54.7260274 L78.0136986,71.803653 C78.0136986,90.6364789 62.3449772,105.958904 43.0821918,105.958904" id="Fill-146" fill="#B0B0B0"></path>
                    <path d="M30.2739726,43.0821918 L26.489726,43.0821918 L26.489726,7.83312578 C26.489726,5.67314134 24.7924914,3.91656289 22.7054795,3.91656289 C20.6184675,3.91656289 18.9212329,5.67314134 18.9212329,7.83312578 L18.9212329,43.0821918 L15.1369863,43.0821918 L15.1369863,7.83312578 C15.1369863,3.51315691 18.5314555,0 22.7054795,0 C26.8795034,0 30.2739726,3.51315691 30.2739726,7.83312578 L30.2739726,43.0821918" id="Fill-147" fill="#B0B0B0"></path>
                    <path d="M69.8630137,43.0821918 L66.0787671,43.0821918 L66.0787671,7.83312578 C66.0787671,5.67314134 64.3815325,3.91656289 62.2945205,3.91656289 C60.2075086,3.91656289 58.510274,5.67314134 58.510274,7.83312578 L58.510274,43.0821918 L54.7260274,43.0821918 L54.7260274,7.83312578 C54.7260274,3.51315691 58.1204966,0 62.2945205,0 C66.4685445,0 69.8630137,3.51315691 69.8630137,7.83312578 L69.8630137,43.0821918" id="Fill-148" fill="#B0B0B0"></path>
                    <path d="M47.739726,85.5821918 C47.739726,88.4762671 45.3923288,90.8219178 42.5,90.8219178 C39.6076712,90.8219178 37.260274,88.4762671 37.260274,85.5821918 C37.260274,82.6881164 39.6076712,80.3424658 42.5,80.3424658 C45.3923288,80.3424658 47.739726,82.6881164 47.739726,85.5821918" id="Fill-152" fill="#FFFFFE"></path>
                    <path d="M42.5,81.7979452 C40.412988,81.7979452 38.7157534,83.4951798 38.7157534,85.5821918 C38.7157534,87.6692038 40.412988,89.3664384 42.5,89.3664384 C44.587012,89.3664384 46.2842466,87.6692038 46.2842466,85.5821918 C46.2842466,83.4951798 44.587012,81.7979452 42.5,81.7979452 Z M42.5,93.1506849 C38.325976,93.1506849 34.9315068,89.7562158 34.9315068,85.5821918 C34.9315068,81.4081678 38.325976,78.0136986 42.5,78.0136986 C46.674024,78.0136986 50.0684932,81.4081678 50.0684932,85.5821918 C50.0684932,89.7562158 46.674024,93.1506849 42.5,93.1506849 Z" id="Fill-153" fill="#B0B0B0"></path>
                </g>
            </g>
        </g>
    </g>
</svg>