<?xml version="1.0" encoding="UTF-8"?>
<svg width="92px" height="115px" viewBox="0 0 92 115" version="1.1" xmlns="http://www.w3.org/2000/svg" xmlns:xlink="http://www.w3.org/1999/xlink">
    <!-- Generator: Sketch 51.1 (57501) - http://www.bohemiancoding.com/sketch -->
    <title>Group 2</title>
    <desc>Created with Sketch.</desc>
    <defs></defs>
    <g id="Data-Sources" stroke="none" stroke-width="1" fill="none" fill-rule="evenodd">
        <g id="Record-List" transform="translate(-555.000000, -242.000000)">
            <g id="Group-6" transform="translate(555.000000, 242.000000)">
                <g id="Group-2">
                    <path d="M80.6575342,77.9915701 C80.6575342,97.5610558 64.8590363,113.424658 45.369863,113.424658 C25.8806898,113.424658 10.0821918,97.5610558 10.0821918,77.9915701 L10.0821918,59.2328767 L80.6575342,59.2328767 L80.6575342,77.9915701 Z" id="Fill-141" fill="#E0F2F1"></path>
                    <polygon id="Fill-142" fill="#77C6C6" points="2.52054795 57.9726027 89.4794521 57.9726027 89.4794521 46.630137 2.52054795 46.630137"></polygon>
                    <path d="M30.2465753,45.369863 L30.2465753,8.64187867 C30.2465753,5.26086367 27.705863,2.52054795 24.5753425,2.52054795 C21.4448219,2.52054795 18.9041096,5.26086367 18.9041096,8.64187867 L18.9041096,45.369863 L30.2465753,45.369863" id="Fill-143" fill="#FFFFFE"></path>
                    <path d="M71.8356164,45.369863 L71.8356164,8.64187867 C71.8356164,5.26086367 69.2949041,2.52054795 66.1643836,2.52054795 C63.033863,2.52054795 60.4931507,5.26086367 60.4931507,8.64187867 L60.4931507,45.369863 L71.8356164,45.369863" id="Fill-144" fill="#FFFFFE"></path>
                    <path d="M51.6712329,92.630137 C51.6712329,95.7625479 49.1305205,98.3013699 46,98.3013699 C42.8694795,98.3013699 40.3287671,95.7625479 40.3287671,92.630137 C40.3287671,89.497726 42.8694795,86.9589041 46,86.9589041 C49.1305205,86.9589041 51.6712329,89.497726 51.6712329,92.630137" id="Fill-152" fill="#FFFFFE"></path>
                    <g id="Group-10" fill="#616161">
                        <path d="M4.18181818,55.1369863 L87.8181818,55.1369863 L87.8181818,46.9452055 L4.18181818,46.9452055 L4.18181818,55.1369863 Z M0,59.2328767 L92,59.2328767 L92,42.8493151 L0,42.8493151 L0,59.2328767 Z" id="Fill-145"></path>
                        <path d="M8.82191781,77.716895 L8.82191781,59.2328767 L13.0228311,59.2328767 L13.0228311,77.716895 C13.0228311,95.8353404 28.0999087,110.577372 46.630137,110.577372 C65.1603653,110.577372 80.2374429,95.8353404 80.2374429,77.716895 L80.2374429,59.2328767 L84.4383562,59.2328767 L84.4383562,77.716895 C84.4383562,98.1006596 67.4792694,114.684932 46.630137,114.684932 C25.783105,114.684932 8.82191781,98.1006596 8.82191781,77.716895 Z" id="Fill-146"></path>
                        <path d="M32.7671233,46.630137 L28.6712329,46.630137 L28.6712329,8.47820672 C28.6712329,6.14034122 26.834226,4.23910336 24.5753425,4.23910336 C22.3164589,4.23910336 20.4794521,6.14034122 20.4794521,8.47820672 L20.4794521,46.630137 L16.3835616,46.630137 L16.3835616,8.47820672 C16.3835616,3.80247572 20.0575753,0 24.5753425,0 C29.0931096,0 32.7671233,3.80247572 32.7671233,8.47820672 L32.7671233,46.630137" id="Fill-147"></path>
                        <path d="M75.6164384,46.630137 L71.5205479,46.630137 L71.5205479,8.47820672 C71.5205479,6.14034122 69.6835411,4.23910336 67.4246575,4.23910336 C65.165774,4.23910336 63.3287671,6.14034122 63.3287671,8.47820672 L63.3287671,46.630137 L59.2328767,46.630137 L59.2328767,8.47820672 C59.2328767,3.80247572 62.9068904,0 67.4246575,0 C71.9424247,0 75.6164384,3.80247572 75.6164384,8.47820672 L75.6164384,46.630137" id="Fill-148"></path>
                        <path d="M46,88.5342466 C43.7411164,88.5342466 41.9041096,90.3712534 41.9041096,92.630137 C41.9041096,94.8890205 43.7411164,96.7260274 46,96.7260274 C48.2588836,96.7260274 50.0958904,94.8890205 50.0958904,92.630137 C50.0958904,90.3712534 48.2588836,88.5342466 46,88.5342466 Z M46,100.821918 C41.4822329,100.821918 37.8082192,97.1479041 37.8082192,92.630137 C37.8082192,88.1123699 41.4822329,84.4383562 46,84.4383562 C50.5177671,84.4383562 54.1917808,88.1123699 54.1917808,92.630137 C54.1917808,97.1479041 50.5177671,100.821918 46,100.821918 Z" id="Fill-153"></path>
                    </g>
                </g>
            </g>
        </g>
    </g>
</svg>