<?xml version="1.0" encoding="UTF-8"?>
<svg width="116px" height="116px" viewBox="0 0 116 116" version="1.1" xmlns="http://www.w3.org/2000/svg" xmlns:xlink="http://www.w3.org/1999/xlink">
    <!-- Generator: Sketch 51.1 (57501) - http://www.bohemiancoding.com/sketch -->
    <title>Group 5</title>
    <desc>Created with Sketch.</desc>
    <defs></defs>
    <g id="Data-Sources" stroke="none" stroke-width="1" fill="none" fill-rule="evenodd">
        <g id="Record-List" transform="translate(-388.000000, -228.000000)">
            <g id="Group-5" transform="translate(388.000000, 228.000000)">
                <g id="Group-22">
                    <path d="M108,57.5 C108,85.3895962 85.3895962,108 57.5,108 C29.6104038,108 7,85.3895962 7,57.5 C7,29.6104038 29.6104038,7 57.5,7 C85.3895962,7 108,29.6104038 108,57.5" id="Fill-145" fill="#77C6C6"></path>
                    <path d="M95.0728919,96 L18.4523909,76.9753161 C17.847089,76.8250211 17.3548023,76.3931607 17.1287718,75.8167128 C16.9046568,75.2383624 16.9755308,74.5896207 17.3222386,74.0740518 L55.6324891,17 L58.8199019,19.1117399 L22.0171598,73.9389765 L96,92.3092113 L95.0728919,96" id="Fill-146" fill="#616161"></path>
                    <path d="M113,96 C113,105.389667 105.389667,113 96,113 C86.6103333,113 79,105.389667 79,96 C79,86.6103333 86.6103333,79 96,79 C105.389667,79 113,86.6103333 113,96" id="Fill-147" fill="#FFFFFE"></path>
                    <path d="M96.5,80.9 C87.89855,80.9 80.9,87.89855 80.9,96.5 C80.9,105.10145 87.89855,112.1 96.5,112.1 C105.10145,112.1 112.1,105.10145 112.1,96.5 C112.1,87.89855 105.10145,80.9 96.5,80.9 Z M96.5,116 C85.7477,116 77,107.2523 77,96.5 C77,85.7477 85.7477,77 96.5,77 C107.2523,77 116,85.7477 116,96.5 C116,107.2523 107.2523,116 96.5,116 Z" id="Fill-148" fill="#616161"></path>
                    <path d="M36,77 C36,86.3896667 28.3896667,94 19,94 C9.61033333,94 2,86.3896667 2,77 C2,67.6103333 9.61033333,60 19,60 C28.3896667,60 36,67.6103333 36,77" id="Fill-149" fill="#FFFFFE"></path>
                    <path d="M19.5,59.9 C10.89855,59.9 3.9,66.89855 3.9,75.5 C3.9,84.10145 10.89855,91.1 19.5,91.1 C28.10145,91.1 35.1,84.10145 35.1,75.5 C35.1,66.89855 28.10145,59.9 19.5,59.9 Z M19.5,95 C8.7477,95 0,86.2523 0,75.5 C0,64.7477 8.7477,56 19.5,56 C30.2523,56 39,64.7477 39,75.5 C39,86.2523 30.2523,95 19.5,95 Z" id="Fill-150" fill="#616161"></path>
                    <path d="M76,19 C76,28.3896667 68.3896667,36 59,36 C49.6103333,36 42,28.3896667 42,19 C42,9.61033333 49.6103333,2 59,2 C68.3896667,2 76,9.61033333 76,19" id="Fill-151" fill="#FFFFFE"></path>
                    <path d="M58.5,3.9 C49.89855,3.9 42.9,10.89855 42.9,19.5 C42.9,28.10145 49.89855,35.1 58.5,35.1 C67.10145,35.1 74.1,28.10145 74.1,19.5 C74.1,10.89855 67.10145,3.9 58.5,3.9 Z M58.5,39 C47.7477,39 39,30.2523 39,19.5 C39,8.7477 47.7477,0 58.5,0 C69.2523,0 78,8.7477 78,19.5 C78,30.2523 69.2523,39 58.5,39 Z" id="Fill-152" fill="#616161"></path>
                </g>
            </g>
        </g>
    </g>
</svg>