<?xml version="1.0" encoding="UTF-8"?>
<svg width="80px" height="117px" viewBox="0 0 80 117" version="1.1" xmlns="http://www.w3.org/2000/svg" xmlns:xlink="http://www.w3.org/1999/xlink">
    <!-- Generator: Sketch 51.1 (57501) - http://www.bohemiancoding.com/sketch -->
    <title>Group 4</title>
    <desc>Created with Sketch.</desc>
    <defs></defs>
    <g id="Data-Sources" stroke="none" stroke-width="1" fill="none" fill-rule="evenodd">
        <g id="Record-List" transform="translate(-713.000000, -238.000000)">
            <g id="Group" transform="translate(692.000000, 228.000000)">
                <g id="Group-4" transform="translate(21.000000, 10.000000)">
                    <path d="M40.5555556,86.6666667 C19.9979412,86.6666667 3.33333333,79.7022222 3.33333333,71.1111111 C3.33333333,85.3955556 3.33333333,95.4733333 3.33333333,97.7777778 C3.33333333,106.368889 19.9979412,113.333333 40.5555556,113.333333 C61.1131699,113.333333 77.7777778,106.368889 77.7777778,97.7777778 C77.7777778,94.5711111 77.7777778,84.8377778 77.7777778,71.1111111 C77.7777778,79.7022222 61.1131699,86.6666667 40.5555556,86.6666667" id="Fill-101" fill="#E0F2F1"></path>
                    <path d="M40.5555556,60 C19.9979412,60 3.33333333,53.0355556 3.33333333,44.4444444 C3.33333333,52.86 3.33333333,62.3533333 3.33333333,71.1111111 C3.33333333,79.7022222 19.9979412,86.6666667 40.5555556,86.6666667 C61.1131699,86.6666667 77.7777778,79.7022222 77.7777778,71.1111111 C77.7777778,62.3355556 77.7777778,52.8466667 77.7777778,44.4444444 C77.7777778,53.0355556 61.1131699,60 40.5555556,60" id="Fill-102" fill="#FFFFFE"></path>
                    <path d="M3.33333333,44.4444444 C3.33333333,53.0355556 19.9979412,60 40.5555556,60 C61.1131699,60 77.7777778,53.0355556 77.7777778,44.4444444 C77.7777778,30.7755556 77.7777778,17.7777778 77.7777778,17.7777778 L3.33333333,17.7777778 C3.33333333,17.7777778 3.33333333,30.7844444 3.33333333,44.4444444" id="Fill-103" fill="#77C6C6"></path>
                    <path d="M77.7777778,19.4444444 C77.7777778,28.342381 61.1131699,35.5555556 40.5555556,35.5555556 C19.9979412,35.5555556 3.33333333,28.342381 3.33333333,19.4444444 C3.33333333,10.5465079 19.9979412,3.33333333 40.5555556,3.33333333 C61.1131699,3.33333333 77.7777778,10.5465079 77.7777778,19.4444444" id="Fill-104" fill="#FFFFFE"></path>
                    <g id="Group-9" fill="#616161">
                        <path d="M40,4.58333333 C19.0466667,4.58333333 4.44444444,11.8295833 4.44444444,18.3333333 C4.44444444,24.8370833 19.0466667,32.0833333 40,32.0833333 C60.9555556,32.0833333 75.5555556,24.8370833 75.5555556,18.3333333 C75.5555556,11.8295833 60.9555556,4.58333333 40,4.58333333 Z M40,36.6666667 C17.1955556,36.6666667 0,28.7833333 0,18.3333333 C0,7.88104167 17.1955556,0 40,0 C62.8044444,0 80,7.88104167 80,18.3333333 C80,28.7833333 62.8044444,36.6666667 40,36.6666667 Z" id="Fill-105"></path>
                        <path d="M40,62.2222222 C17.1955556,62.2222222 0,54.5777778 0,44.4444444 L4.44444444,44.4444444 C4.44444444,50.7511111 19.0466667,57.7777778 40,57.7777778 C60.9555556,57.7777778 75.5555556,50.7511111 75.5555556,44.4444444 L80,44.4444444 C80,54.5777778 62.8044444,62.2222222 40,62.2222222" id="Fill-106"></path>
                        <path d="M40,88.8888889 C17.1955556,88.8888889 0,81.2444444 0,71.1111111 L4.44444444,71.1111111 C4.44444444,77.4177778 19.0466667,84.4444444 40,84.4444444 C60.9555556,84.4444444 75.5555556,77.4177778 75.5555556,71.1111111 L80,71.1111111 C80,81.2444444 62.8044444,88.8888889 40,88.8888889" id="Fill-107"></path>
                        <path d="M40,116.666667 C17.1955556,116.666667 0,109.022222 0,98.8888889 L4.44444444,98.8888889 C4.44444444,105.195556 19.0466667,112.222222 40,112.222222 C60.9555556,112.222222 75.5555556,105.195556 75.5555556,98.8888889 L80,98.8888889 C80,109.022222 62.8044444,116.666667 40,116.666667" id="Fill-108"></path>
                        <polygon id="Fill-109" points="75.5555556 100 80 100 80 17.7777778 75.5555556 17.7777778"></polygon>
                        <polygon id="Fill-110" points="0 100 4.44444444 100 4.44444444 17.7777778 0 17.7777778"></polygon>
                    </g>
                </g>
            </g>
        </g>
    </g>
</svg>