<?xml version="1.0" encoding="UTF-8"?>
<svg width="72px" height="105px" viewBox="0 0 72 105" version="1.1" xmlns="http://www.w3.org/2000/svg" xmlns:xlink="http://www.w3.org/1999/xlink">
    <!-- Generator: Sketch 51.1 (57501) - http://www.bohemiancoding.com/sketch -->
    <title>Group 4</title>
    <desc>Created with Sketch.</desc>
    <defs></defs>
    <g id="Data-Sources" stroke="none" stroke-width="1" fill="none" fill-rule="evenodd">
        <g id="Record-List" transform="translate(-713.000000, -228.000000)">
            <g id="Group" transform="translate(713.000000, 228.000000)">
                <g id="Group-4">
                    <path d="M36.5,78 C17.9981471,78 3,71.732 3,64 C3,76.856 3,85.926 3,88 C3,95.732 17.9981471,102 36.5,102 C55.0018529,102 70,95.732 70,88 C70,85.114 70,76.354 70,64 C70,71.732 55.0018529,78 36.5,78" id="Fill-101" fill="#EEEEEE"></path>
                    <path d="M36.5,54 C17.9981471,54 3,47.732 3,40 C3,47.574 3,56.118 3,64 C3,71.732 17.9981471,78 36.5,78 C55.0018529,78 70,71.732 70,64 C70,56.102 70,47.562 70,40 C70,47.732 55.0018529,54 36.5,54" id="Fill-102" fill="#EEEEEE"></path>
                    <path d="M3,40 C3,47.732 17.9981471,54 36.5,54 C55.0018529,54 70,47.732 70,40 C70,27.698 70,16 70,16 L3,16 C3,16 3,27.706 3,40" id="Fill-103" fill="#EEEEEE"></path>
                    <path d="M70,17.5 C70,25.5081429 55.0018529,32 36.5,32 C17.9981471,32 3,25.5081429 3,17.5 C3,9.49185714 17.9981471,3 36.5,3 C55.0018529,3 70,9.49185714 70,17.5" id="Fill-104" fill="#EEEEEE"></path>
                    <g id="Group-3" fill="#B0B0B0">
                        <path d="M36,4.125 C17.142,4.125 4,10.646625 4,16.5 C4,22.353375 17.142,28.875 36,28.875 C54.86,28.875 68,22.353375 68,16.5 C68,10.646625 54.86,4.125 36,4.125 Z M36,33 C15.476,33 0,25.905 0,16.5 C0,7.0929375 15.476,0 36,0 C56.524,0 72,7.0929375 72,16.5 C72,25.905 56.524,33 36,33 Z" id="Fill-105"></path>
                        <path d="M36,80 C15.476,80 0,73.12 0,64 L4,64 C4,69.676 17.142,76 36,76 C54.86,76 68,69.676 68,64 L72,64 C72,73.12 56.524,80 36,80" id="Fill-107"></path>
                        <path d="M36,105 C15.476,105 0,98.12 0,89 L4,89 C4,94.676 17.142,101 36,101 C54.86,101 68,94.676 68,89 L72,89 C72,98.12 56.524,105 36,105" id="Fill-108"></path>
                        <polygon id="Fill-109" points="68 90 72 90 72 16 68 16"></polygon>
                        <polygon id="Fill-110" points="0 90 4 90 4 16 0 16"></polygon>
                        <path d="M36,56 C15.476,56 0,49.12 0,40 L4,40 C4,45.676 17.142,52 36,52 C54.86,52 68,45.676 68,40 L72,40 C72,49.12 56.524,56 36,56" id="Fill-106"></path>
                    </g>
                </g>
            </g>
        </g>
    </g>
</svg>