<?xml version="1.0" encoding="UTF-8"?>
<svg width="101px" height="101px" viewBox="0 0 101 101" version="1.1" xmlns="http://www.w3.org/2000/svg" xmlns:xlink="http://www.w3.org/1999/xlink">
    <!-- Generator: Sketch 51.1 (57501) - http://www.bohemiancoding.com/sketch -->
    <title>Group 2</title>
    <desc>Created with Sketch.</desc>
    <defs></defs>
    <g id="Templates" stroke="none" stroke-width="1" fill="none" fill-rule="evenodd">
        <g id="404" transform="translate(-550.000000, -190.000000)">
            <g id="Group-3" transform="translate(409.000000, 190.000000)">
                <g id="Group-2" transform="translate(141.000000, 0.000000)">
                    <path d="M101,50.5 C101,78.3917812 78.3917813,101 50.5,101 C22.6082188,101 0,78.3917812 0,50.5 C0,22.6082187 22.6082188,0 50.5,0 C78.3917813,0 101,22.6082187 101,50.5" id="Fill-122" fill="#EEEEEE"></path>
                    <polyline id="Fill-123" fill="#FFFFFE" points="33.4375 58 30 74 70 74 66.5625 58 33.4375 58"></polyline>
                    <polyline id="Fill-124" fill="#FFFFFE" points="64 43 60.4642857 27 40.5357143 27 37 43 64 43"></polyline>
                    <polyline id="Fill-125" fill="#EEEEEE" points="30.52 74 27 90 51 90 51 74 30.52 74"></polyline>
                    <polyline id="Fill-126" fill="#EEEEEE" points="37.5283019 43 34 59 51 59 51 43 37.5283019 43"></polyline>
                    <polyline id="Fill-127" fill="#EEEEEE" points="44.5483871 11 41 27 51 27 51 11 44.5483871 11"></polyline>
                    <polyline id="Fill-128" fill="#D6D6D6" points="70.48 74 50 74 50 90 74 90 70.48 74"></polyline>
                    <polyline id="Fill-129" fill="#D6D6D6" points="63.4716981 43 50 43 50 59 67 59 63.4716981 43"></polyline>
                    <polyline id="Fill-130" fill="#D6D6D6" points="56.4516129 11 50 11 50 27 60 27 56.4516129 11"></polyline>
                    <polygon id="Fill-131" fill="#FFFFFE" points="17 99 83 99 83 90 17 90"></polygon>
                    <path d="M19.1363636,97.75 L81.8636364,97.75 L81.8636364,91.25 L19.1363636,91.25 L19.1363636,97.75 Z M83.4318182,101 L17.5681818,101 C16.7009773,101 16,100.272 16,99.375 L16,89.625 C16,88.728 16.7009773,88 17.5681818,88 L83.4318182,88 C84.2990227,88 85,88.728 85,89.625 L85,99.375 C85,100.272 84.2990227,101 83.4318182,101 Z" id="Fill-132" fill="#B0B0B0"></path>
                    <path d="M28.5767092,87.8461538 L72.4232908,87.8461538 L55.5935474,12.1538462 L45.4064526,12.1538462 L28.5767092,87.8461538 Z M74.4058856,91 L26.5941144,91 C26.1112155,91 25.6538163,90.7839615 25.3526021,90.4102308 C25.0497942,90.0396538 24.9334522,89.5508077 25.0370444,89.0840385 L42.5680272,10.2378846 C42.7289935,9.51565385 43.3760461,9 44.1250972,9 L56.8749028,9 C57.6239539,9 58.2710065,9.51565385 58.4319728,10.2378846 L75.9629556,89.0840385 C76.0665478,89.5508077 75.9502058,90.0396538 75.6473979,90.4102308 C75.3461837,90.7839615 74.8887845,91 74.4058856,91 Z" id="Fill-133" fill="#B0B0B0"></path>
                    <polygon id="Fill-134" fill="#B0B0B0" points="79 58 82 58 82 55 79 55"></polygon>
                    <polygon id="Fill-135" fill="#B0B0B0" points="79 52 82 52 82 49 79 49"></polygon>
                    <polygon id="Fill-136" fill="#B0B0B0" points="79 46 82 46 82 43 79 43"></polygon>
                    <polygon id="Fill-137" fill="#B0B0B0" points="19 58 22 58 22 55 19 55"></polygon>
                    <polygon id="Fill-138" fill="#B0B0B0" points="19 52 22 52 22 49 19 49"></polygon>
                    <polygon id="Fill-139" fill="#B0B0B0" points="19 46 22 46 22 43 19 43"></polygon>
                </g>
            </g>
        </g>
    </g>
</svg>